# xmcd CD database file
#
# Track frame offsets:
#	150
#	18939
#	37291
#	62468
#	84711
#	104306
#	125445
#	147370
#	166810
#	189120
#
# Disc length: 2888 seconds
#
# Revision: 0
# Processed by: cddbd v1.5.1PL0 Copyright (c) Steve Scherf et al.
# Submitted via: CDex 1.51
#
DISCID=7e0b460a
DTITLE=Original Love - 街男 街女
DYEAR=2004
DGENRE=JPop
TTITLE0=築地オーライ
TTITLE1=銀ジャケットの街男
TTITLE2=沈黙の薔薇
TTITLE3=死の誘惑のブルース
TTITLE4=赤い街の入り口
TTITLE5=ひとりぼっちのアイツ
TTITLE6=Yen
TTITLE7=或る逃避行
TTITLE8=夜の宙返り
TTITLE9=鍵、イリュージョン
EXTD=YEAR: 2004
EXTT0=
EXTT1=
EXTT2=
EXTT3=
EXTT4=
EXTT5=
EXTT6=
EXTT7=
EXTT8=
EXTT9=
PLAYORDER=
